<svg id="Capa_1" data-name="Capa 1" xmlns="http://www.w3.org/2000/svg" xmlns:xlink="http://www.w3.org/1999/xlink" viewBox="0 0 295.34 217.17"><defs><linearGradient id="Degradado_sin_nombre_14" data-name="Degradado sin nombre 14" x1="201.94" y1="180.29" x2="268.46" y2="180.29" gradientUnits="userSpaceOnUse"><stop offset="0" stop-color="#d109c8"/><stop offset="1" stop-color="#f40019"/></linearGradient><linearGradient id="Degradado_sin_nombre_15" data-name="Degradado sin nombre 15" x1="180.79" y1="116.11" x2="213.33" y2="116.11" gradientUnits="userSpaceOnUse"><stop offset="0" stop-color="#1a65bc"/><stop offset=".3" stop-color="#0f76d2"/><stop offset=".69" stop-color="#0488e9"/><stop offset=".94" stop-color="#008ff2"/></linearGradient><linearGradient id="Degradado_sin_nombre_14-2" data-name="Degradado sin nombre 14" x1="242.55" y1="84.5" x2="265.53" y2="84.5" xlink:href="#Degradado_sin_nombre_14"/><linearGradient id="Degradado_sin_nombre_2" data-name="Degradado sin nombre 2" x1="56.38" y1="165.61" x2="81.67" y2="165.61" gradientUnits="userSpaceOnUse"><stop offset="0" stop-color="#ff5a00"/><stop offset="1" stop-color="#ffbe00"/></linearGradient><linearGradient id="Degradado_sin_nombre_2-2" data-name="Degradado sin nombre 2" x1="46.34" y1="127.18" x2="56.71" y2="127.18" xlink:href="#Degradado_sin_nombre_2"/><linearGradient id="Degradado_sin_nombre_2-3" data-name="Degradado sin nombre 2" x1="56.16" y1="185.32" x2="81.63" y2="185.32" xlink:href="#Degradado_sin_nombre_2"/><linearGradient id="Degradado_sin_nombre_2-4" data-name="Degradado sin nombre 2" x1="18.94" y1="175.35" x2="44.62" y2="175.35" xlink:href="#Degradado_sin_nombre_2"/><linearGradient id="Degradado_sin_nombre_15-2" data-name="Degradado sin nombre 15" x1="51.36" y1="44.64" x2="187.65" y2="44.64" xlink:href="#Degradado_sin_nombre_15"/><linearGradient id="Degradado_sin_nombre_2-5" data-name="Degradado sin nombre 2" x1="169.98" y1="45.46" x2="178.68" y2="45.46" xlink:href="#Degradado_sin_nombre_2"/><linearGradient id="Degradado_sin_nombre_2-6" data-name="Degradado sin nombre 2" x1=".56" y1="69.91" x2="11.16" y2="69.91" xlink:href="#Degradado_sin_nombre_2"/><linearGradient id="Degradado_sin_nombre_2-7" data-name="Degradado sin nombre 2" x1="68.6" y1="72.08" x2="83.75" y2="72.08" xlink:href="#Degradado_sin_nombre_2"/><linearGradient id="Degradado_sin_nombre_2-8" data-name="Degradado sin nombre 2" x1="105.64" y1="197.17" x2="122.03" y2="197.17" xlink:href="#Degradado_sin_nombre_2"/><style>.cls-12,.cls-7{stroke-width:0}.cls-7{fill:#1a1a1a}.cls-12{fill:#fff}</style></defs><path class="cls-12" d="M248.24 82.31h11.53v11.53h-11.53zM250.95 62.16h6.09c1.05 0 1.9.85 1.9 1.9v5.37a1.9 1.9 0 0 1-1.9 1.9h-6.09a1.9 1.9 0 0 1-1.9-1.9v-5.37c0-1.05.85-1.9 1.9-1.9ZM185.24 81.31s8.13 5.15 8.43 14.06l-8.05 1.23 1.28-5.74s.3-7.31-1.66-9.55Z"/><path class="cls-12" d="M69.35 32.63h100.63c9.84 0 17.83 7.99 17.83 17.83v57.85c0 9.84-7.99 17.83-17.83 17.83H69.35c-9.84 0-17.83-7.99-17.83-17.83V50.46c0-9.84 7.99-17.83 17.83-17.83Z"/><path d="M209.95 156.17h50.51c4.42 0 8.01 3.59 8.01 8.01v32.24c0 4.42-3.59 8.01-8.01 8.01h-50.51c-4.42 0-8.01-3.59-8.01-8.01v-32.24c0-4.42 3.59-8.01 8.01-8.01Z" style="fill:url(#Degradado_sin_nombre_14);opacity:.5;stroke-width:0"/><path class="cls-7" d="M226.68 136.17c-1.32-3.44-3.84-8.9-6.83-13.33-2.99-4.44-9.02-12.8-9.92-13.46l-2.27 4.06-2.38 5.45 2.09 17.94-23.32-2.78s-11.1.71-16.95 8.22c-5.84 7.5-5.12 10.32-8.15 16.02-3.03 5.7-3.68 7.79-7.79 6.85-4.11-.94-4.4-3.82-5.34-6.78-.94-2.96-7.19-21.92-7.64-23.33 0 0-4.48-3.58-12.2-2.28-7.72 1.3-10.77 6.11-10.77 6.11s3.48 20.98 6.35 28.31c2.88 7.33 8.16 24.47 27.5 24.79 0 0 10.63.26 16.36-3.91.42.26-1.78 23.54-3.01 28.75h53.15s-3.11-14.88-1.47-27.24c1.64-12.36 1.84-29.04 1.64-31.48-.09-1.12-.18-2.93-.35-4.91 1.65.68 5.72 1.46 9.22-2.67 4.19-4.95 3.38-10.88 2.07-14.31Z"/><path class="cls-12" d="M133.02 132.47s.82-7.83.93-8.44c.11-.61.65-4.22-.47-6.84-1.11-2.61-1.35-5.06-3.39-5.35-2.04-.29-2.82-.18-3.36.56s-.22 2.71.34 3.88c.56 1.16 2.63 5.09.57 6.55s-2.73.26-2.96-1.6c-.24-1.87-.5-5.37.32-6.76.82-1.39 2.11-2.73 2.07-3.92-.04-1.19-1.14-2.38-2.63-2.17-1.49.22-2.43.99-2.43.99s-4.72-.01-5.79 4.17c0 0-2.96 2.32-3.42 6.12-.46 3.8.3 8.06.72 9.69.41 1.63 2.18 6.13 3.19 7.3 0 0 3.61-2.94 6.49-3.45 2.89-.51 9.81-.74 9.81-.74ZM181.43 105.41s-2.83 11.69-3.1 13.24c-.28 1.55-1.37 6.69 4.87 7.76 0 0 .69-2.45 2.27-3.93 1.57-1.48 2.82-2.45 2.82-2.45s4.21.8 5.19-2.77c.98-3.57-2.15-5.13-3.28-5.34-1.13-.22-2.24-.71-2.24-.71s-5.56-3.19-6.53-5.8Z"/><path class="cls-12" d="M181.61 105.41s-1.84-4.85 0-8.06c1.84-3.21 5.17-4.22 7.91-4.18 2.74.03 7.81 1.28 10.92 4.17 0 0 6.64 1.54 8.52 4.63 1.88 3.1.81 6.62.44 7.69-.38 1.07-2.66 5.42-2.77 6.4 0 0-.42.88 1.62 2.56 2.04 1.69 4.5 3.87 4.94 7.49.43 3.62.33 9.86-5.62 12.15-5.96 2.3-11.78-1.14-12.48-1.97-.53-.06-6.69 2.53-10.03-1.58-3.33-4.11-1.65-9.13-.89-10.27.77-1.13 2.61-3.56 3.89-4.24 0 0 3.81.95 5.02-2.03 1.2-2.98-.24-5.25-1.54-5.98-1.3-.72-2.49-.5-2.49-.5s-6.14-2.21-7.43-6.3Z"/><path d="M181.61 105.41s-1.84-4.85 0-8.06c1.84-3.21 5.17-4.22 7.91-4.18 2.74.03 7.81 1.28 10.92 4.17 0 0 6.64 1.54 8.52 4.63 1.88 3.1.81 6.62.44 7.69-.38 1.07-2.66 5.42-2.77 6.4 0 0-.42.88 1.62 2.56 2.04 1.69 4.5 3.87 4.94 7.49.43 3.62.33 9.86-5.62 12.15-5.96 2.3-11.78-1.14-12.48-1.97-.53-.06-6.69 2.53-10.03-1.58-3.33-4.11-1.65-9.13-.89-10.27.77-1.13 2.61-3.56 3.89-4.24 0 0 3.81.95 5.02-2.03 1.2-2.98-.24-5.25-1.54-5.98-1.3-.72-2.49-.5-2.49-.5s-6.14-2.21-7.43-6.3Z" style="fill:url(#Degradado_sin_nombre_15);opacity:.53;stroke-width:0"/><path class="cls-7" d="M259.58 109.28H248.5c-1.31 0-2.38-1.07-2.38-2.38 0-1.51 1.07-2.58 2.38-2.58h11.08c1.31 0 2.38 1.07 2.38 2.38 0 1.51-1.07 2.58-2.38 2.58Z"/><path d="m253.99 66.74-11.44 23.28s1.58 8.64 4.88 12.24h13.53s4.2-7.12 4.56-12.11l-11.54-23.41Zm0 24.99a3.651 3.651 0 1 1 .002-7.302 3.651 3.651 0 0 1-.002 7.302Z" style="fill:url(#Degradado_sin_nombre_14-2);opacity:.5;stroke-width:0"/><path d="M56.38 178.61s5.03-9 11.74-15.92 13.55-10.07 13.55-10.07-.09 8.8-10.18 17.23c-10.08 8.43-15.12 8.77-15.12 8.77Z" style="fill:url(#Degradado_sin_nombre_2);opacity:.5;stroke-width:0"/><path d="M56.7 138.78s-.05-8.01-1.71-12.65c-1.66-4.64-5.54-9.49-8.65-10.77 0 0 .04 4.68 2.53 10.77 2.49 6.09 7.84 12.86 7.84 12.86v-.21Z" style="fill:url(#Degradado_sin_nombre_2-2);opacity:.5;stroke-width:0"/><path class="cls-7" d="M59.77 138.99s11.54-5.19 16.69-10.72c5.15-5.53 6.74-8.73 7.2-10.07.47-1.34 1.08-5.13 1.08-5.13s-7.84 3.19-14.86 11.09c-7.03 7.91-9.96 13.37-10.11 14.83ZM60.59 152.85s12.33-2.7 18.52-6.81c6.2-4.11 9.42-9.5 9.52-10.65 0 0-8.69 1.58-16.27 7.35-7.57 5.77-11.78 10.11-11.78 10.11ZM51.2 188.22s-.8-11.09-5.18-19.84-8.26-12.56-8.26-12.56-3.28 6.37 1.19 16.2c4.47 9.83 12.25 16.2 12.25 16.2Z"/><path d="M56.17 198.62s12.21-5.66 17.92-11.79c5.7-6.13 7.9-12.28 7.5-14.81 0 0-9 4.16-15.27 11.99s-10.29 13.18-10.14 14.6Z" style="opacity:.5;fill:url(#Degradado_sin_nombre_2-3);stroke-width:0"/><path d="M44.62 188.72s-3.69-8.4-10.22-14.64c-6.52-6.24-13.15-11.63-15.46-12.1 0 0-.55 8.76 9.15 16.63 9.7 7.87 16.53 10.12 16.53 10.12Z" style="fill:url(#Degradado_sin_nombre_2-4);opacity:.5;stroke-width:0"/><path class="cls-7" d="M43.04 208.24s-9.02-7.15-13.99-13.4c-4.97-6.25-8.29-15.14-8.29-15.14s9.51 2.47 14.83 10.99c5.33 8.52 7.45 17.79 7.45 17.79v-.25Z"/><path d="M187.65 53.24c0-11.34-8.95-20.61-19.88-20.61H71.24c-10.93 0-19.88 9.27-19.88 20.61v3.42h136.29v-3.42Z" style="opacity:.53;stroke-width:0;fill:url(#Degradado_sin_nombre_15-2)"/><path class="cls-12" d="M152.26 45.46c0 2.4-1.95 4.35-4.35 4.35s-4.35-1.95-4.35-4.35 1.95-4.35 4.35-4.35 4.35 1.95 4.35 4.35ZM165.47 45.46c0 2.4-1.95 4.35-4.35 4.35s-4.35-1.95-4.35-4.35 1.95-4.35 4.35-4.35 4.35 1.95 4.35 4.35Z"/><path d="M178.68 45.46c0 2.4-1.95 4.35-4.35 4.35s-4.35-1.95-4.35-4.35 1.95-4.35 4.35-4.35 4.35 1.95 4.35 4.35Z" style="fill:url(#Degradado_sin_nombre_2-5);opacity:.5;stroke-width:0"/><path class="cls-7" d="M4.04 76.01h9.12c1.05 0 1.91.85 1.91 1.91v9.12c0 1.05-.85 1.91-1.91 1.91H4.04a1.91 1.91 0 0 1-1.91-1.91v-9.12c0-1.05.85-1.91 1.91-1.91Z" transform="rotate(-37.01 8.607 82.488)"/><path d="m9.88 71.09 1.27-8.84s-1.05-.13-1.66.32c-.54.4-5.67 4.27-6.81 5.13-.21.15-.37.34-.51.56-.19.31-.42.8-.52 1.45C1.48 70.9.54 77.58.54 77.58l8.04-6.32s.5-.37 1.28-.17Z" style="fill:url(#Degradado_sin_nombre_2-6);opacity:.5;stroke-width:0"/><path style="fill:url(#Degradado_sin_nombre_2-7);opacity:.5;stroke-width:0" d="M68.6 64.5h15.15v15.15H68.6z"/><path class="cls-7" d="M59.77 97.59h15.15v15.15H59.77z"/><path d="M122.03 197.17c0 4.53-3.67 8.2-8.2 8.2s-8.2-3.67-8.2-8.2 3.67-8.2 8.2-8.2 8.2 3.67 8.2 8.2Z" style="fill:url(#Degradado_sin_nombre_2-8);opacity:.5;stroke-width:0"/><path class="cls-12" d="M136.46 188.66s5.14 3.04 13.4 3.3c8.26.27 12.8-2.54 12.8-2.54s-2.81-8.49-12.7-8.49-13.27 6.93-13.51 7.72Z"/><path class="cls-7" d="M150 192.34c-1.03 0-2.09-.04-3.18-.13l-1.12-.12c-5.75-.77-10.84-3.27-14.72-7.24-6.08-6.2-9.08-14.77-11.21-22.33-2.32-8.23-3.45-14.89-4.88-23.34.1-.73 2.78-6.13 12.18-6.98 8.45-.76 11.29 2.43 11.41 2.57.07.13 8.15 24.8 8.15 24.8.64 1.98 1.24 3.85 3.04 4.88 1.75 1 3.95.77 5.59-.6 1.58-1.32 2.47-3.26 3.32-5.29.42-1 .82-2.01 1.23-3.03 1.31-3.26 2.66-6.62 4.36-9.74 1.92-3.52 5.01-6.63 8.92-8.99 3.23-1.95 9.11-2.9 11.49-3.22.23-.03.4.12.43.33.03.21-.12.4-.33.43-1.82.24-8 1.19-11.2 3.12-3.8 2.29-6.78 5.29-8.64 8.7-1.68 3.08-3.02 6.42-4.32 9.66-.41 1.01-.82 2.03-1.23 3.03-.85 2.04-1.82 4.15-3.53 5.58-1.89 1.58-4.42 1.84-6.45.68-2.06-1.17-2.73-3.27-3.39-5.31l-2.8-8.58-5.24-16c-.38-.38-3.26-2.93-10.71-2.26-8.28.75-11.12 5.22-11.52 5.95 1.45 8.56 2.57 15.21 4.88 23.4 2.1 7.47 5.06 15.92 11.02 22 3.76 3.84 8.7 6.26 14.27 7.01l1.1.12c30.48 2.55 37.72-32.52 37.79-32.88.04-.21.25-.34.45-.3.21.04.34.24.3.45-.07.35-6.97 33.62-35.43 33.62Z"/><path class="cls-12" d="M220.04 189.18c-.39-.18-.43-.42-.32-.59l17.6-26.1c.12-.17.36-.22.53-.1.17.12.22.35.1.53l-17.6 26.11c-.08.11-.19.17-.32.17ZM242.52 189.18c-.41-.25-.42-.49-.28-.64l12.43-13.15-12.42-12.42a.38.38 0 0 1 0-.54.38.38 0 0 1 .54 0l12.68 12.68c.15.15.15.38 0 .53l-12.68 13.42c-.08.08-.17.12-.28.12Z"/><path class="cls-7" d="M70.15 217.17H33.34a.38.38 0 1 1 0-.76h36.81a.38.38 0 1 1 0 .76ZM44.62 189.1c-27.61-12.64-26.13-26.59-26.06-27.17 17.32 8.11 26.31 26.44 26.4 26.63-.09.48-.21.55-.34.55Zm-25.31-26.51c.04 2.71 1.59 14.74 24.63 25.63-1.76-3.31-10.22-18.16-24.63-25.63ZM56.17 199c-.64-.8 9.59-19.58 25.23-27.42.62.88 2.03 14.76-25.07 27.38-.05.02-.1.04-.16.04Zm25.04-26.47c-13.43 7-22.73 22.08-24.72 25.51 23.08-10.91 24.67-22.81 24.72-25.51Z"/><path class="cls-7" d="M43.39 208.87c-.22-.07-.97-.61-.97-.61-4.1-3.04-17.81-14.08-22.02-28.45.58-.46 16.65 2.22 23.36 28.58-.22.45-.3.47-.37.47Zm-22.07-28.65c4.42 14.02 18.33 25.02 21.43 27.34-5.95-22.03-18.52-26.57-21.43-27.34ZM50.94 188.6c-20.51-20.03-13.95-32.59-13.66-33.12 12.05 11.82 14.03 29.18 14.31 32.54-.5.56-.57.58-.64.58Zm-13.21-32.25c-.96 2.48-4.06 14.1 13.04 31.17-.42-4.31-2.65-20.04-13.04-31.17ZM54.96 155.88c-.16-.03-.97-.4-.97-.4-26.34-12.54-25.13-26.16-25.06-26.73 17.24 8.06 26.02 25.83 26.38 26.58-.14.51-.24.55-.34.55Zm-25.29-26.47c.09 2.71 1.85 14.48 24.45 25.29-2.06-3.85-10.32-17.96-24.45-25.29ZM56.52 139.37c-.39-.26-10.38-12.53-10.56-24 .96-.2 11.5 3.89 11.12 23.42-.34.53-.45.58-.56.58Zm-9.78-23.4c.45 9.57 7.63 19.59 9.59 22.16.1-15.97-7.49-21.06-9.59-22.16ZM59.45 139.67c-.38-.44-.26-1.24-.26-1.24 2.31-4.36 10.86-18.76 25.37-26.03.61.88 1.85 14.65-24.95 27.24-.05.02-.11.03-.16.03Zm.49-1.07c22.58-10.78 24.33-22.55 24.42-25.25-13.91 7.22-22.16 21.04-24.42 25.25ZM56.38 179.55c.38-2.55 9.25-19.33 25.12-27.28.61.88 1.85 14.65-24.95 27.24-.05.02-.11.03-.16.03Zm24.92-26.32c-14.08 7.31-22.46 21.61-24.45 25.3 22.6-10.82 24.36-22.59 24.45-25.3ZM60.51 153.29c-.39-.96 12.92-14.87 28.09-18.5.38.94-1.87 12.91-27.81 18.41-.16.07-.22.09-.29.09Zm27.64-17.6c-12.8 3.32-24.16 13.89-26.96 16.65 21.62-4.73 26.14-14.2 26.96-16.65Z"/><path class="cls-7" d="M50.22 217.17c-.25-.03-.4-.22-.38-.43l9.23-77.5c.03-.21.2-.34.42-.33.21.03.36.21.33.42l-9.23 77.5c-.02.19-.19.34-.38.34ZM45.92 217.17c-.2 0-.37-.16-.38-.36l-1.3-28.06a.38.38 0 0 1 .36-.4c.22 0 .39.16.4.36l1.3 28.07a.38.38 0 0 1-.36.4h-.02ZM43.66 217.13c-.2 0-.37-.16-.38-.37l-.27-8.26c0-.21.16-.39.37-.39.2-.01.38.16.39.37l.27 8.26c0 .21-.16.39-.37.39h-.01ZM54.87 217.13a.384.384 0 0 1-.38-.4l.89-18.18c0-.21.18-.33.4-.36.21 0 .37.19.36.4l-.89 18.18c0 .2-.18.36-.38.36Z"/><path class="cls-7" d="M52.63 194.2c-.37-.29-1.91-6.53-1.91-6.53a.381.381 0 0 1 .74-.18l1.54 6.24c.05.2-.07.41-.28.46-.03 0-.06.01-.09.01ZM54.25 183.3c-.36-.13-.44-.36-.34-.55l1.88-3.86c.09-.19.32-.27.51-.17.19.09.27.32.18.51l-1.88 3.86a.37.37 0 0 1-.34.21ZM55.97 167.52c-.38-.35-1.39-11.99-1.39-11.99-.02-.21.14-.4.35-.41.19-.04.39.14.41.35l1.01 11.64a.38.38 0 0 1-.35.41h-.03ZM58.22 148.53c-.37-.31-2.06-9.48-2.06-9.48-.04-.21.1-.41.31-.44.22-.04.41.1.44.3l1.69 9.16c.04.21-.1.41-.3.44h-.07ZM56.87 161.29c-.34-.11-.43-.34-.35-.53l3.49-8.11c.08-.19.31-.28.5-.2.19.08.28.31.2.5l-3.49 8.11c-.06.14-.2.23-.35.23ZM247.43 102.64c-3.85-4.98-5.2-12.25-5.25-12.55.03-.24 11.47-23.52 11.47-23.52.09-.19.32-.27.51-.17.19.09.27.32.17.51l-11.38 23.16c.19.98 1.6 7.61 4.79 11.97.12.17.09.41-.08.53a.39.39 0 0 1-.23.07Z"/><path class="cls-7" d="M261.07 102.5c-.39-.19-.43-.43-.31-.6 3.1-4.36 4.24-10.87 4.4-11.82l-11.5-23.17a.38.38 0 0 1 .17-.51c.19-.1.42-.02.51.17l11.56 23.28c0 .53-1.07 7.65-4.51 12.49-.07.1-.19.16-.31.16Z"/><path class="cls-7" d="M260.96 102.64h-13.53a.38.38 0 1 1 0-.76h13.53a.38.38 0 1 1 0 .76ZM259.58 109.67H248.5c-1.52 0-2.76-1.24-2.76-2.76 0-1.72 1.24-2.96 2.76-2.96h11.08c1.52 0 2.76 1.24 2.76 2.76 0 1.72-1.24 2.96-2.76 2.96Zm-11.08-4.96c-1.1 0-2 .9-2 2 0 1.3.9 2.19 2 2.19h11.08c1.1 0 2-.9 2-2 0-1.3-.9-2.2-2-2.2H248.5ZM254 92.11c-2.22 0-4.03-1.81-4.03-4.03s1.81-4.03 4.03-4.03 4.03 1.81 4.03 4.03-1.81 4.03-4.03 4.03Zm0-7.3c-1.8 0-3.27 1.47-3.27 3.27a3.271 3.271 0 0 0 6.54 0c0-1.8-1.47-3.27-3.27-3.27Z"/><path class="cls-7" d="M254 84.53a.38.38 0 0 1-.38-.38V67.22a.38.38 0 1 1 .76 0v16.93c0 .21-.17.38-.38.38Z"/><path class="cls-7" d="M256.98 71.7h-.61a.38.38 0 1 1 0-.76h.61c.86 0 1.57-.7 1.57-1.57V64.1c0-.86-.7-1.57-1.57-1.57h-5.99c-.86 0-1.57.7-1.57 1.57v5.27c0 .86.7 1.57 1.57 1.57h.74a.38.38 0 1 1 0 .76h-.74c-1.29 0-2.33-1.05-2.33-2.33V64.1c0-1.28 1.04-2.33 2.33-2.33h5.99c1.28 0 2.33 1.04 2.33 2.33v5.27c0 1.28-1.05 2.33-2.33 2.33ZM189.5 120.6a4.509 4.509 0 0 1-3.72-1.96.385.385 0 0 1 .1-.53c.17-.12.41-.08.53.1.44.64 1.05 1.12 1.77 1.39a3.77 3.77 0 0 0 4.85-2.19c.36-.94.32-1.96-.09-2.88a3.727 3.727 0 0 0-2.1-1.97 3.744 3.744 0 0 0-3.62.53.37.37 0 0 1-.53-.07.37.37 0 0 1 .07-.53c1.25-.96 2.88-1.2 4.35-.64 2.34.88 3.52 3.5 2.64 5.84a4.533 4.533 0 0 1-4.24 2.93Z"/><path class="cls-7" d="M189.82 118.57c-.31-.16-2.32-2.92-2.32-2.92.2-.59 3.63-1.58 3.63-1.58.2-.06.41.06.47.26s-.06.41-.26.47l-2.91.84 1.69 2.33c.12.17.09.41-.08.53-.07.05-.15.07-.22.07ZM183.2 126.79c-2.26-.21-3.85-1.04-4.75-2.46-1.67-2.66-.32-6.39-.26-6.55l3.05-12.46c.05-.2.25-.34.46-.28.2.05.33.26.28.46l-3.06 12.5c-.03.08-1.29 3.58.18 5.92.76 1.21 2.16 1.92 4.14 2.11.21.02.36.2.34.41-.02.2-.18.35-.38.35Z"/><path class="cls-7" d="M178.07 116.12c-1.32-.31-1.83-1.22-1.58-2.09l1.89-6.74c.24-.87 1.16-1.39 2.03-1.14.44.12.74.34.91.64.17.3.19.67.07 1.11-.06.2-.26.32-.47.26a.381.381 0 0 1-.26-.47c-.93-.94-1.41-.66-1.54-.2l-1.89 6.74c-.13.47.14.96.61 1.09.23.06.46.03.67-.08.2-.12.35-.3.41-.53.06-.2.27-.32.47-.27.2.06.32.27.27.47-.12.42-.39.77-.77.99-.25.14-.53.21-.81.21ZM162.42 217.17c-.32-.09-.43-.3-.36-.5.69-2.07 3.41-21.11 3.41-28.87a.38.38 0 1 1 .76 0c0 7.39-2.65 26.71-3.45 29.11-.05.16-.2.26-.36.26ZM217.59 154.29c-.68 0-1.34-.1-1.97-.29a.386.386 0 0 1-.25-.48c.06-.2.28-.31.47-.25 1.94.61 4.37.09 6.49-1.37 9.54-6.6 3.69-18.61-2.48-28.34-2.96-4.68-6.42-9.37-10.56-14.35-.14-.16-.11-.4.05-.54.16-.13.4-.11.54.05 4.16 5 7.64 9.73 10.62 14.43 4.08 6.44 13.64 21.51 2.27 29.37-1.68 1.16-3.49 1.76-5.18 1.76Z"/><path class="cls-7" d="M215.57 217.17c-.4-.43-3.29-13.58-1.83-27.86 3.06-29.9 1.8-45.92-4.08-51.96a.39.39 0 0 1 0-.54.39.39 0 0 1 .54 0c6.14 6.3 7.42 22.02 4.3 52.57-1.45 14.16 1.41 27.19 1.44 27.32.05.2-.08.41-.29.46h-.08Z"/><path class="cls-7" d="M265.41 217.17H96.26a.38.38 0 1 1 0-.76h169.15a.38.38 0 1 1 0 .76ZM191.13 137.52c-.51 0-1.07-.04-1.67-.15-3.31-.55-6.79-3.18-6.63-8.9.17-6.15 5.23-8.58 5.28-8.6.2-.09.42 0 .51.18.09.19 0 .42-.18.51-.19.09-4.69 2.26-4.85 7.93-.18 6.58 4.54 7.88 5.99 8.13 4.41.73 6.06-1.81 6.13-1.91.11-.18.35-.23.52-.12.18.11.23.34.13.52-.07.11-1.53 2.41-5.22 2.41Z"/><path class="cls-7" d="M203.27 139.31c-3.48 0-6.84-1.11-8.6-2.87a.38.38 0 0 1 0-.54.38.38 0 0 1 .54 0c1.67 1.66 4.96 2.72 8.31 2.64 3.01-.05 5.58-.97 7.05-2.52 1.68-1.78 2.56-4.78 2.39-8.23-.09-2.01-.53-3.76-1.28-5.21-.63-1.2-1.63-2-2.69-2.85-.62-.5-1.27-1.02-1.85-1.63-.43-.45-.87-1.01-.91-1.71-.05-.87.46-1.82.87-2.59.23-.43.53-1.02.53-1.02.38-.74.78-1.52 1.08-2.3.86-2.26 1.12-4.43.76-6.44-.81-4.47-9.02-6.3-9.1-6.32-4.09-3.56-10.97-5.61-15.68-3.01-4.53 2.49-3.38 7.76-3.32 7.98 0 .32.02 5.7 8.39 8.87.2.07.3.29.22.49-.08.2-.3.29-.49.22-8.9-3.38-8.88-9.26-8.88-9.51-.01 0-1.31-5.96 3.71-8.72 4.99-2.74 12.18-.66 16.31 2.95 1.01.24 8.74 2.17 9.59 6.91.39 2.15.12 4.45-.79 6.85-.32.83-.72 1.62-1.11 2.38l-.3.58c-.6 1.13-1.06 1.98-1.02 2.64.02.46.37.88.7 1.23.54.57 1.17 1.08 1.77 1.56 1.08.86 2.19 1.75 2.89 3.09.81 1.54 1.27 3.4 1.37 5.52.1 2.15-.1 6.15-2.6 8.79-1.61 1.7-4.38 2.71-7.59 2.76h-.25ZM270.64 171.36c-.43-.36-.38-.59-.2-.7.71-.44 1.42-.92 2.11-1.41.17-.12.41-.08.53.09.12.17.08.41-.09.53-.7.5-1.43.99-2.15 1.44a.36.36 0 0 1-.2.06Zm5.56-4.14c-.42-.29-.41-.53-.25-.67 1.08-.95 2.13-1.97 3.12-3.02a.39.39 0 0 1 .54-.02c.15.14.16.39.02.54a45.785 45.785 0 0 1-3.17 3.07c-.07.06-.16.1-.25.1Zm6.01-6.38c-.4-.21-.43-.45-.3-.62.88-1.13 1.74-2.31 2.54-3.53.12-.18.36-.23.53-.11.17.12.22.35.11.53-.81 1.23-1.68 2.44-2.58 3.58-.08.09-.19.14-.3.14Zm4.83-7.3c-.37-.15-.44-.38-.33-.56.69-1.26 1.36-2.57 1.96-3.89.09-.19.32-.27.5-.19.19.09.27.31.19.51-.62 1.34-1.28 2.66-1.99 3.93-.07.13-.2.2-.33.2Zm3.67-7.96c-.33-.1-.43-.32-.36-.51.51-1.36.98-2.75 1.4-4.13.06-.2.26-.32.48-.25.2.06.31.27.25.47-.42 1.39-.9 2.8-1.42 4.18-.06.15-.2.25-.36.25Zm2.54-8.39c-.29-.06-.42-.26-.37-.47.33-1.4.61-2.84.85-4.28.04-.21.22-.34.44-.31.21.03.35.23.31.44-.24 1.45-.52 2.91-.85 4.32-.04.18-.2.29-.37.29Zm1.42-8.64c-.25-.02-.4-.21-.38-.42.14-1.46.24-2.92.29-4.35 0-.21.18-.4.39-.37.21 0 .37.18.37.39-.05 1.45-.15 2.92-.29 4.4-.02.2-.18.34-.38.34Zm.29-8.76c-.21 0-.37-.16-.38-.37-.05-1.47-.14-2.93-.28-4.35-.02-.21.13-.4.34-.42.25-.02.39.13.42.34.14 1.44.24 2.92.29 4.4 0 .21-.16.39-.37.39h-.01Zm-.86-8.72c-.62-1.76-.91-3.19-1.24-4.59-.05-.2.07-.41.28-.46.2-.05.41.08.46.28.34 1.41.63 2.87.88 4.32.03.21-.11.4-.32.44h-.06Zm-2.04-8.52c-.8-1.65-1.3-3.03-1.83-4.37-.08-.2.02-.42.21-.5.2-.07.42.02.5.21.54 1.35 1.04 2.75 1.48 4.15.06.2-.05.42-.25.48-.04.01-.08.02-.12.02Zm-3.25-8.13c-.98-1.51-1.67-2.8-2.41-4.04a.37.37 0 0 1 .14-.52.38.38 0 0 1 .52.13c.75 1.26 1.45 2.57 2.09 3.88.09.19.01.42-.17.51-.05.03-.11.04-.17.04Zm-4.46-7.54c-1.13-1.33-2.01-2.5-2.95-3.62-.13-.16-.11-.4.05-.54.16-.13.4-.11.54.05.94 1.15 1.84 2.33 2.67 3.51.12.17.08.41-.09.53a.36.36 0 0 1-.22.07Zm-5.57-6.75c-1.27-1.15-2.33-2.16-3.42-3.12a.38.38 0 0 1-.03-.54.38.38 0 0 1 .54-.03c1.1.98 2.18 2 3.19 3.05.15.15.14.39 0 .54-.07.07-.17.11-.27.11Zm-6.56-5.8c-1.37-.94-2.57-1.78-3.79-2.57a.386.386 0 0 1-.12-.53c.12-.18.35-.23.53-.11 1.24.8 2.46 1.65 3.61 2.53.17.13.2.37.07.53-.08.1-.19.15-.3.15Zm-7.35-4.75c-1.42-.73-2.73-1.39-4.07-2.01a.384.384 0 0 1-.18-.51c.09-.19.31-.27.51-.19 1.35.63 2.67 1.3 3.93 1.99.18.1.25.33.15.52-.07.13-.2.2-.33.2ZM250.5 58.06c-.68-1.67-1.15-3.04-1.76-4.36-.09-.19 0-.42.19-.51.19-.09.42 0 .5.19.63 1.36 1.12 2.78 1.44 4.21.05.2-.08.41-.29.46h-.08Zm-39.79-5.24c-.4-.54-.25-.73-.05-.76 1.31-.16 2.64-.8 3.66-1.78a.39.39 0 0 1 .54.01c.15.15.14.39-.01.54-1.13 1.08-2.62 1.8-4.09 1.98h-.05Zm-3.51-1.85c-.41-.5-.43-.7-.43-.91 0-.98.41-2.1 1.22-3.36.38-.55.62-.59.79-.47.17.12.21.36.09.53-.97 1.48-1.33 2.47-1.33 3.29.09.67-.05.87-.25.91h-.07Zm39.66-.82c-1.13-1.3-2.07-2.4-3.12-3.43a.38.38 0 0 1 0-.54.38.38 0 0 1 .54 0c1.08 1.06 2.05 2.19 2.89 3.37.12.17.08.41-.09.53a.36.36 0 0 1-.22.07Zm-30.01-2.92c-.33-.1-.43-.32-.36-.52.48-1.27.8-2.67.95-4.16.02-.21.24-.38.42-.34.21.02.36.21.34.42-.16 1.56-.49 3.02-1 4.36-.06.15-.2.25-.36.25ZM240.67 44c-1.41-.93-2.66-1.68-3.92-2.31a.38.38 0 0 1-.17-.51c.09-.19.32-.27.51-.17 1.29.65 2.57 1.42 3.8 2.31.17.12.21.36.09.53-.07.1-.19.16-.31.16Zm-28.97-.1c-.43-.34-.39-.58-.22-.69 1.14-.78 2.47-1.47 3.96-2.05.2-.08.42.02.49.21.08.2-.02.42-.22.49-1.43.56-2.71 1.23-3.81 1.97-.07.05-.14.07-.21.07Zm8.07-3.28c-.42-.5-.29-.71-.08-.75 1.4-.31 2.87-.55 4.37-.7.18-.04.39.13.42.34.02.21-.13.4-.34.42-1.47.15-2.91.38-4.28.69h-.08Zm13.06-.45c-.59-.13-1.06-.22-1.48-.27-.88-.1-1.84-.16-2.88-.18-.21 0-.38-.18-.37-.39 0-.21.17-.37.38-.37 1.06.02 2.06.08 2.96.18.46.05.96.15 1.48.27.2.05.33.25.28.46-.04.17-.2.29-.37.29Zm-14.99-1.58c-.5-1.71-.72-3.14-1.06-4.62a.385.385 0 0 1 .75-.17c.34 1.51.58 2.98.69 4.38a.38.38 0 0 1-.35.41h-.03Zm-1.9-8.54c-.75-1.39-1.19-2.52-1.68-3.63l-.3-.66c-.09-.19 0-.42.18-.51.19-.08.42 0 .51.19l.3.67c.5 1.12.95 2.28 1.34 3.43.07.2-.04.42-.24.48-.04.01-.08.02-.12.02Zm-105.18-.35c-.38-.16-.44-.39-.33-.58.75-1.25 1.57-2.49 2.43-3.68.12-.17.36-.21.53-.08.17.12.21.36.09.53-.85 1.17-1.66 2.39-2.4 3.63-.07.12-.2.18-.33.18Zm5.13-7.08c-.41-.23-.43-.47-.29-.63.95-1.1 1.97-2.19 3.02-3.22a.39.39 0 0 1 .54 0c.15.15.15.39 0 .54a58.969 58.969 0 0 0-2.97 3.17c-.08.09-.18.13-.29.13Zm96.36-.5c-1.07-1.42-1.9-2.62-2.77-3.77a.37.37 0 0 1 .07-.53c.17-.13.41-.1.53.07.9 1.17 1.73 2.39 2.5 3.65.11.18.05.41-.13.52-.06.04-.13.05-.2.05Zm-90.13-5.65c-.43-.3-.4-.54-.25-.67 1.11-.93 2.27-1.85 3.47-2.72.17-.12.41-.09.53.09.12.17.09.41-.08.53-1.18.86-2.33 1.76-3.43 2.69-.07.06-.16.09-.25.09Zm84.8-1.29c-1.28-1.16-2.35-2.15-3.46-3.06a.38.38 0 0 1-.05-.54c.14-.16.38-.18.54-.05 1.13.93 2.22 1.94 3.25 3.01.15.15.14.39-.01.54-.07.07-.17.11-.26.11Zm-77.72-3.86c-.43-.36-.38-.59-.2-.7a62.84 62.84 0 0 1 3.81-2.21.384.384 0 1 1 .36.68c-1.28.68-2.54 1.42-3.77 2.18a.36.36 0 0 1-.2.06Zm70.96-1.69c-.89-.51-1.5-.87-2.07-1.18-.64-.34-1.28-.67-1.92-.99a.372.372 0 0 1-.17-.51c.09-.19.33-.27.51-.17.66.32 1.31.66 1.95 1 .59.32 1.21.69 1.92 1.15.17.12.22.35.11.53-.07.11-.2.17-.32.17Zm-63.24-2.45c-.43-.42-.35-.64-.16-.73 1.33-.61 2.7-1.18 4.07-1.7.19-.07.42.02.49.22s-.02.42-.22.49a66.9 66.9 0 0 0-4.02 1.68c-.05.02-.11.03-.16.03Zm55.42-1.48c-1.48-.57-2.85-1.08-4.23-1.54a.377.377 0 0 1-.24-.48c.07-.2.28-.31.48-.24 1.39.46 2.79.98 4.13 1.53.19.08.29.3.21.5-.06.15-.2.24-.35.24Zm-47.23-1.64c-.43-.47-.31-.68-.11-.74 1.38-.43 2.81-.83 4.24-1.18a.381.381 0 0 1 .18.74c-1.42.35-2.83.74-4.2 1.17-.04.01-.08.02-.11.02Zm38.92-1.13c-1.49-.37-2.92-.69-4.35-.97a.374.374 0 0 1-.3-.44c.04-.2.22-.34.44-.3 1.44.27 2.89.6 4.3.96.2.05.32.26.27.46-.05.17-.2.29-.37.29Zm-30.42-.97c-.41-.52-.28-.72-.07-.76 1.44-.26 2.9-.49 4.35-.67.21-.01.4.12.42.33.02.21-.12.4-.33.42-1.44.18-2.89.4-4.31.66h-.07Zm21.82-.66c-1.47-.18-2.93-.32-4.39-.41a.38.38 0 0 1-.36-.4c.01-.21.2-.35.4-.36 1.47.09 2.95.23 4.39.41.21.03.36.22.33.43-.02.19-.19.33-.38.33ZM162.3.9c-.39-.57-.23-.75-.02-.76 1.48-.09 2.96-.14 4.41-.14a.38.38 0 1 1 0 .76c-1.43 0-2.9.05-4.36.14h-.02ZM133.21 132.86c-.22 0-.39-.18-.38-.39 0-.06.15-5.75.95-9.56.78-3.77-2.1-10.05-3.95-10.75-.99-.38-1.92-.33-2.48.13-.39.32-.55.82-.46 1.4.33 1.99.89 3.2 1.33 4.17.59 1.28 1.01 2.21.43 3.83-.75 2.13-1.93 2.42-2.4 2.45-.61.03-1.15-.26-1.4-.77-.41-.82-1.9-7.03.47-10.25 1.19-1.51 2-2.75.85-3.85-.83-.8-2.42-.56-3.38.17-1.45 1.1-2.14 3.23-2.64 4.78-1.81 5.57-.02 10.81 0 10.87.07.2-.04.42-.23.49-.2.07-.41-.03-.49-.23-.08-.22-1.9-5.53 0-11.35.54-1.65 1.27-3.91 2.91-5.15 1.21-.92 3.22-1.22 4.37-.12.91.87.93 1.81.59 2.7.76-.37 1.76-.37 2.8.02 2.35.89 5.25 7.64 4.42 11.62-.78 3.75-.93 9.37-.93 9.43 0 .21-.18.37-.38.37Zm-7.1-19.51c-2.3 3.11-.93 8.95-.57 9.67.12.23.37.36.68.35.67-.04 1.31-.77 1.73-1.95.47-1.34.14-2.06-.41-3.26-.46-1.01-1.04-2.27-1.39-4.36-.03-.15-.04-.31-.04-.46Z"/><path class="cls-7" d="M115.89 126.32c-1.12-3.88-1.73-11.63 1.32-15.29 1.16-1.39 2.73-2.09 4.67-2.02.21 0 .38.18.37.39 0 .21-.21.39-.39.37-1.7-.03-3.06.54-4.07 1.75-2.87 3.44-2.26 10.89-1.54 14.34a.38.38 0 0 1-.3.45h-.08ZM127.07 111.49c-.43-.37-.38-.6-.2-.71l3.76-2.26c.18-.11.42-.05.52.13.11.18.05.41-.13.52l-3.76 2.25c-.06.04-.13.05-.2.05Zm7.52-4.51c-.44-.36-.38-.6-.2-.71l3.76-2.25c.18-.11.41-.05.52.13.11.18.05.41-.13.52l-3.76 2.25c-.06.04-.13.05-.2.05Zm7.52-4.51c-.43-.37-.38-.6-.2-.71l3.76-2.25a.38.38 0 0 1 .39.65l-3.76 2.25c-.06.04-.13.05-.2.05Zm7.51-4.51c-.44-.37-.38-.6-.2-.71l3.76-2.26a.38.38 0 0 1 .39.65l-3.76 2.26c-.06.04-.13.05-.2.05Zm7.52-4.51c-.43-.37-.38-.6-.2-.71l3.76-2.26c.18-.11.41-.05.52.13.11.18.05.41-.13.52l-3.76 2.26c-.06.04-.13.05-.2.05Zm7.51-4.51c-.43-.37-.38-.6-.2-.71l3.76-2.26c.18-.11.41-.05.52.13.11.18.05.41-.13.52l-3.76 2.25c-.06.04-.13.05-.2.05Z"/><path class="cls-7" d="M116.5 137.04c-4.14-6.03-4.13-12.91-4.12-16.61.01-4.48 3.72-7.7 3.87-7.84.16-.14.4-.12.54.04s.12.4-.04.54c-.04.03-3.6 3.14-3.61 7.26 0 3.62-.02 10.35 3.68 16.02a.377.377 0 0 1-.32.59ZM180.81 100.95c-.26-.1-2.43-1.82-5.84-3.55-3.62-1.84-7.09-8.31-6.32-10.71.34-1.05.97-1.84 1.73-2.2-.9-.29-1.62-.89-1.74-2.15-.15-1.59 1.35-2.97 2.82-3.34 1.99-.5 4.22.33 5.84.94 5.73 2.15 8.75 6.89 8.87 7.09.11.18.06.41-.12.52-.18.11-.41.06-.52-.12-.03-.05-3.01-4.72-8.49-6.78-1.53-.57-3.63-1.37-5.39-.92-1.17.3-2.35 1.39-2.25 2.54.14 1.58 1.62 1.72 3.53 1.73 4.01.16 7.93 5.2 8.31 6.03.24.51.13 1.13-.27 1.58-.32.35-1.28 1.08-3.41.34-1.63-.57-2.09-1.47-2.72-2.73-.48-.95-1.08-2.14-2.43-3.64-.39-.44-.87-.62-1.38-.52-.71.15-1.32.84-1.65 1.85-.61 1.88 2.5 8.05 5.94 9.79 3.48 1.76 5.64 3.47 5.73 3.55.17.13.19.37.06.54-.08.09-.19.14-.3.14Zm-8.16-16.17c1.75 1.89 2.37 3.12 2.87 4.12.6 1.18.95 1.89 2.29 2.36 1.19.41 2.15.36 2.6-.14.2-.22.26-.51.15-.74-.42-.91-4.22-5.46-7.64-5.59h-.27Z"/><path class="cls-7" d="M193.62 93.99c-1.75-5.7-4.15-9.15-8.91-12.6-3.1-2.25-7.23-4.48-11.7-1.83-.19.11-.42.05-.52-.13a.377.377 0 0 1 .13-.52c4.86-2.88 9.25-.51 12.54 1.87 4.93 3.57 7.4 7.14 8.84 12.74.05.2-.07.41-.27.46-.03 0-.06.01-.1.01ZM7.74 88.04c-1-.12-1.58-.46-1.98-.98L.49 80.07c-.4-.53-.56-1.18-.47-1.83.09-.65.43-1.23.96-1.63l6.99-5.27c1.09-.82 2.63-.6 3.46.49l5.27 6.99c.4.53.56 1.18.47 1.83-.09.65-.43 1.23-.96 1.63l-6.99 5.27c-.43.33-.95.5-1.48.5ZM9.46 71.6c-.36 0-.72.11-1.03.34l-6.99 5.27c-.36.27-.6.67-.66 1.13-.06.45.05.9.33 1.27l5.27 6.99c.57.75 1.64.9 2.39.34l6.99-5.27c.36-.27.6-.67.66-1.13.06-.45-.05-.9-.33-1.27l-5.27-6.99c-.34-.44-.85-.68-1.37-.68ZM18.05 71.64c-.22 0-.38-.18-.38-.39 0-.4-.12-.78-.36-1.11l-5.17-6.85c-.29-.38-.71-.63-1.18-.7-.48-.06-.94.06-1.33.35l-6.85 5.17c-.38.29-.63.7-.7 1.17-.03.21-.22.35-.43.32a.375.375 0 0 1-.32-.43c.1-.67.45-1.26.99-1.67l6.85-5.17a2.557 2.557 0 0 1 3.58.5l5.17 6.85c.35.46.52 1 .51 1.57 0 .21-.17.38-.38.38Z"/><path class="cls-7" d="M10.02 70.6c-.26-.03-.41-.23-.38-.43l.95-6.73a.37.37 0 0 1 .43-.32c.21.03.35.22.32.43l-.95 6.73c-.03.19-.19.33-.38.33ZM168.25 126.51h-31.81a.38.38 0 1 1 0-.76h31.81c3.04 0 5.71-.63 8.4-1.99a.38.38 0 1 1 .34.68c-2.77 1.4-5.63 2.07-8.74 2.07ZM110.76 126.51H81.75a.38.38 0 1 1 0-.76h29.01a.38.38 0 1 1 0 .76ZM64.75 125.26c-2.26-.84-4.34-2.01-6.49-3.62-2.37-1.77-5.02-6.66-5.13-6.87a19.765 19.765 0 0 1-1.77-8.22V52.48c0-11.01 8.95-19.96 19.96-19.96h26.73a.38.38 0 1 1 0 .76H71.32c-10.59 0-19.2 8.61-19.2 19.2v54.07c0 2.75.57 5.4 1.69 7.88.01.03 2.67 4.93 4.9 6.6 2.1 1.56 4.12 2.71 6.17 3.5.2.08.29.3.22.49-.06.15-.2.24-.35.24ZM187.65 81.37a.38.38 0 0 1-.38-.38V52.48c0-10.59-8.61-19.2-19.2-19.2h-44.65a.38.38 0 1 1 0-.76h44.65c11.01 0 19.96 8.95 19.96 19.96v28.51c0 .21-.17.38-.38.38ZM252.86 199.96h-38.41a.38.38 0 1 1 0-.76h38.41c5.14 0 9.31-4.18 9.31-9.31v-28.87c0-5.13-4.18-9.31-9.31-9.31h-29.15a.38.38 0 1 1 0-.76h29.15c5.56 0 10.07 4.52 10.07 10.07v28.87c0 5.55-4.52 10.07-10.07 10.07ZM.49 78.45c-.26-.03-.41-.23-.38-.43l1.29-9.15c.03-.21.23-.34.43-.32.21.03.35.22.32.43L.86 78.13c-.03.19-.19.33-.38.33ZM16.78 80.55c-.26-.03-.41-.23-.38-.43l1.29-9.15c.03-.21.23-.34.43-.32.21.03.35.22.32.43l-1.3 9.15c-.03.19-.19.33-.38.33Z"/><path class="cls-7" d="M182.22 56.39H57.18a.38.38 0 1 1 0-.76h125.04a.38.38 0 1 1 0 .76ZM174.17 50.03c-2.52 0-4.56-2.05-4.56-4.56s2.05-4.56 4.56-4.56 4.56 2.05 4.56 4.56-2.05 4.56-4.56 4.56Zm0-8.37c-2.1 0-3.8 1.71-3.8 3.8s1.71 3.8 3.8 3.8 3.8-1.71 3.8-3.8-1.71-3.8-3.8-3.8ZM161.1 50.03c-2.52 0-4.56-2.05-4.56-4.56s2.05-4.56 4.56-4.56 4.56 2.05 4.56 4.56-2.05 4.56-4.56 4.56Zm0-8.37c-2.1 0-3.8 1.71-3.8 3.8s1.71 3.8 3.8 3.8 3.8-1.71 3.8-3.8-1.71-3.8-3.8-3.8ZM148.03 50.03c-2.52 0-4.57-2.05-4.57-4.56s2.05-4.56 4.57-4.56 4.56 2.05 4.56 4.56-2.05 4.56-4.56 4.56Zm0-8.37c-2.1 0-3.8 1.71-3.8 3.8s1.71 3.8 3.8 3.8 3.8-1.71 3.8-3.8-1.71-3.8-3.8-3.8ZM171.54 111.49h-39.57a.38.38 0 1 1 0-.76h39.19V96.6a.38.38 0 1 1 .76 0v14.51c0 .21-.17.38-.38.38ZM120.72 107.3a.38.38 0 0 1-.38-.38V77.63c0-.21.17-.38.38-.38h46.9a.38.38 0 1 1 0 .76H121.1v28.91c0 .21-.17.38-.38.38ZM101.12 116.83a.38.38 0 0 1-.38-.38V62.69a.38.38 0 1 1 .76 0v53.76c0 .21-.17.38-.38.38ZM79.9 82.46H64.75a.38.38 0 0 1-.38-.38V66.93c0-.21.17-.38.38-.38H79.9c.21 0 .38.17.38.38v15.15c0 .21-.17.38-.38.38Zm-14.77-.77h14.39V67.3H65.13v14.39ZM79.9 108.52H64.75a.38.38 0 0 1-.38-.38V92.99c0-.21.17-.38.38-.38H79.9c.21 0 .38.17.38.38v15.15c0 .21-.17.38-.38.38Zm-14.77-.76h14.39V93.37H65.13v14.39ZM110.47 202.68c-4.73 0-8.58-3.85-8.58-8.58s3.85-8.58 8.58-8.58 8.58 3.85 8.58 8.58-3.85 8.58-8.58 8.58Zm0-16.4c-4.31 0-7.82 3.51-7.82 7.82s3.51 7.82 7.82 7.82 7.82-3.51 7.82-7.82-3.51-7.82-7.82-7.82ZM162.67 189.64c-1.82-5.09-7.07-8.46-13.14-8.46-5.73 0-10.76 3-12.53 7.46-.08.2-.3.29-.49.21-.2-.08-.29-.3-.21-.49 1.88-4.75 7.19-7.95 13.24-7.95 6.4 0 11.96 3.59 13.51 8.73.06.2-.05.41-.25.47-.04.01-.07.02-.11.02Z"/></svg>