<svg id="Capa_1" data-name="Capa 1" xmlns="http://www.w3.org/2000/svg" viewBox="0 0 178.8 26.55"><defs><style>.cls-2{fill:#fff;stroke-width:0}</style></defs><path class="cls-2" d="M47.77 20.74c-.77 0-1.55-.28-2.16-.84l-6.26-5.79c-.16-.15-.31-.32-.45-.52l.24-.17c.12.16.23.28.34.39 1.18 1.08 3.01 1 4.1-.17l2.15-2.32 4.21 3.89a3.192 3.192 0 0 1-2.16 5.54Zm-7.36-6.05 5.41 4.99c.57.52 1.31.79 2.08.76a2.84 2.84 0 0 0 2.01-.93c1.08-1.18 1-3.01-.17-4.1s-4-3.69-4-3.69l-1.95 2.11c-.88.96-2.22 1.26-3.38.86Z"/><path class="cls-2" d="M38.9 13.6c-.93-1.23-.85-2.95.19-4.08l5.79-6.26a3.192 3.192 0 0 1 4.51-.19c.63.57.99 1.36 1.03 2.22.04.85-.26 1.67-.84 2.29l-3.84 4.15-2.27-2.09c-1.18-1.08-3.01-1-4.1.17a2.92 2.92 0 0 0-.24 3.62l-.24.17Zm2.61-5.02c.77 0 1.55.28 2.16.84l2.05 1.89 3.64-3.94c.52-.57.79-1.31.76-2.08a2.84 2.84 0 0 0-.93-2.01c-1.18-1.08-3.01-1-4.1.17l-5.08 5.5c.47-.25.98-.37 1.5-.37ZM22.07 22.17c-.26 0-.52-.03-.77-.1-.11-.03-.2-.06-.29-.09h-.02c-.08-.04-.15-.07-.22-.1-.03-.02-.07-.03-.1-.05a.746.746 0 0 1-.12-.07c-.04-.02-.08-.05-.13-.07-.01 0-.02-.02-.04-.02h-.02c-.11-.09-.22-.16-.31-.25h-.01l-.14-.14-.05-.05-.12-.12c-.03-.04-.07-.08-.1-.12l-.02-.02s-.03-.03-.04-.05v-.02s-.04-.03-.05-.05c-.29-.42-.48-.91-.54-1.43 0-.02-.01-.04-.01-.06l-.42-8.27c0-.13-.01-.26-.02-.39 0-.25-.02-.51-.04-.76-.1-.96-.62-1.94-1.34-2.48-.87-.66-2.25-.77-3.34-.25-.9.43-1.58 1.36-1.85 2.55-.05.22-.07.44-.07.71 0 .43-.1.87-.29 1.27-.44.9-1.48 2.37-3.49 2.04-2.89-.47-2.69-3.95-2.69-3.98-.01-.62.07-1.33.25-2.14.5-2.24 1.68-4.11 3.33-5.28C10.85 1.07 13.41.49 16.23.75c2.34.22 4.36 1.14 5.84 2.66 1.42 1.46 2.4 3.46 2.76 5.62.04.22.06.46.07.74l.17 5.34c.02.71.04 1.32.05 1.91.01.59.03 1.19.05 1.9.07 1.36-.79 2.64-2.08 3.09-.08.03-.16.06-.24.08-.26.07-.52.1-.79.1Zm-1.83-.97c.09.08.18.15.28.21l.05.03s.08.04.11.07c.04.02.07.04.11.06.03.02.06.03.09.05.07.03.13.06.2.08h.02c.08.04.17.06.26.09.46.12.95.12 1.42 0 .07-.02.14-.04.21-.07a2.82 2.82 0 0 0 1.88-2.8c-.02-.71-.04-1.32-.05-1.91-.01-.59-.03-1.2-.05-1.91l-.17-5.34c0-.27-.03-.5-.06-.71-.35-2.1-1.3-4.04-2.68-5.46-1.43-1.47-3.39-2.36-5.66-2.58-2.74-.26-5.24.3-7.03 1.57-1.59 1.13-2.73 2.94-3.21 5.11-.18.79-.26 1.47-.24 2.09 0 .14-.18 3.26 2.45 3.69 1.82.3 2.77-1.05 3.18-1.88.17-.35.26-.75.26-1.14 0-.29.02-.53.08-.78.29-1.28 1.02-2.29 2.01-2.75 1.18-.56 2.68-.44 3.64.29.78.59 1.35 1.65 1.46 2.69.03.26.04.53.04.78 0 .13 0 .25.02.38l.43 8.3c.05.48.22.94.5 1.33s0 .03.01.04v.02s.03.02.04.04l.02.03s.06.07.09.11c.03.04.07.08.1.11l.05.05s.08.08.13.12l-.08.12.09-.11Zm-.98-1.87Zm-.01-.03Z"/><path class="cls-2" d="M9.22 26.36c-.77 0-1.51-.28-2.08-.8a3.07 3.07 0 0 1-1.02-2.15c-.04-.72-.11-2.1-.18-3.48-.07-1.38-.14-2.76-.18-3.48l-.24-4.91c0-.13-.01-.26-.01-.38 0-.25-.02-.51-.04-.77v-.09c-.08-1.62-.94-2.36-1.64-2.7-.26-.13-.47-.18-.53-.19l-.14-.03c-.45-.09-1.2-.23-1.82-.68A3.008 3.008 0 0 1 0 4.33C-.04 3.5.24 2.7.8 2.09s1.32-.98 2.15-1.02h.25c.06 0 1.59-.08 3.75 1.21h.01c.79.43 1.49.96 2.09 1.58 1.42 1.47 2.4 3.46 2.75 5.62.04.22.06.46.07.74l.16 5.34c.02.71.08 2.08.13 3.41s.11 2.7.13 3.42c0 .09 0 .18.02.27.01.16.02.32.02.49.06 1.68-1.26 3.12-2.95 3.21h-.16ZM3.08 1.35h-.11c-.75.04-1.44.37-1.95.92S.26 3.55.3 4.3c.04.87.48 1.66 1.2 2.16.57.41 1.25.54 1.7.63l.14.03c.08.02.31.07.59.21.63.3 1.71 1.09 1.81 2.94v.07c.03.26.03.53.04.78 0 .13 0 .25.01.38l.24 4.91c.04.72.11 2.1.18 3.48.07 1.38.14 2.76.18 3.48.04.75.37 1.44.92 1.95s1.28.76 2.03.72a2.829 2.829 0 0 0 2.67-2.92c0-.16 0-.31-.02-.47 0-.1-.01-.19-.02-.29-.02-.71-.08-2.08-.13-3.41s-.11-2.7-.13-3.42l-.16-5.34c0-.27-.03-.5-.06-.71-.34-2.1-1.29-4.04-2.67-5.47-.58-.6-1.26-1.11-2.03-1.52l-.02-.02c-1.7-1.02-3.02-1.15-3.43-1.16s-.15 0-.15 0h-.13ZM40.33 26.55c-2.3 0-4.19-.68-5.6-2.03-2.55-2.44-2.8-6.26-2.82-7.37l-.34-6.74c0-.13-.01-.26-.02-.39 0-.25-.02-.51-.04-.76-.1-.96-.62-1.94-1.34-2.48-.87-.66-2.25-.77-3.34-.25-.9.43-1.58 1.36-1.85 2.55-.05.22-.07.44-.07.71 0 .43-.1.87-.29 1.27-.44.9-1.48 2.37-3.49 2.04-2.89-.47-2.69-3.95-2.69-3.98-.01-.62.07-1.33.25-2.14.5-2.24 1.68-4.11 3.33-5.28C23.88.38 26.44-.2 29.26.06c1.02.1 1.78.21 2.62.54s.11.05.4.18c4.38 1.92 5.29 5.14 5.47 6.09.06.23.09.47.11.69v.1c.03.3.03.49.03.5.02.44.04.82.06 1.21.03.54.06 1.08.09 1.81l.24 4.91c0 .13.01.26.01.39 0 .25.02.51.04.77v.08c.08 1.62.94 2.36 1.64 2.7.26.13.47.18.53.19l.14.03c.45.09 1.2.23 1.82.68a3.08 3.08 0 0 1 1.32 2.39c.08 1.6-1.05 2.97-2.6 3.22v.02l-.3.02h-.56ZM28.31 5.91c.75 0 1.48.22 2.04.64.78.59 1.35 1.65 1.46 2.69.03.26.04.53.04.78 0 .13 0 .25.02.38l.34 6.74c.01.78.19 4.75 2.72 7.17 1.43 1.37 3.38 2.02 5.78 1.95h.23a2.814 2.814 0 0 0 2.57-2.96c-.04-.87-.48-1.66-1.2-2.16-.57-.41-1.25-.54-1.7-.63l-.14-.03c-.09-.02-.32-.08-.6-.21-.63-.3-1.71-1.09-1.81-2.94v-.07c-.03-.26-.03-.53-.04-.78 0-.13 0-.25-.01-.38l-.24-4.91c-.04-.72-.06-1.26-.09-1.8-.02-.38-.04-.77-.06-1.22v-.12c0-.08 0-.21-.02-.37v-.1c-.02-.2-.05-.42-.1-.64-.17-.92-1.06-4.02-5.29-5.88-.06-.03-.37-.16-.4-.18C31 .57 30.27.45 29.27.36c-2.74-.26-5.24.3-7.03 1.57-1.59 1.13-2.73 2.94-3.21 5.11-.18.79-.26 1.47-.24 2.09 0 .14-.18 3.26 2.45 3.69 1.82.3 2.77-1.05 3.18-1.88.17-.35.26-.75.26-1.14 0-.29.02-.53.08-.78.29-1.28 1.02-2.29 2.01-2.75.5-.24 1.06-.35 1.6-.35Z"/><path class="cls-2" d="M21.7 13.14c-.18 0-.36-.01-.56-.05-1.96-.32-2.5-2.03-2.64-3.02v-.06s0-.06-.01-.09c0-.03 0-.05-.01-.08v-.06c-.04-.4-.02-.66-.02-.67-.01-.62.07-1.33.25-2.14.38-1.72 1.17-3.23 2.28-4.37l.09-.09.1.08c.32.25.62.52.9.8 1.42 1.46 2.4 3.46 2.76 5.62.04.22.06.46.07.74v.2c-.01.4-.11.77-.27 1.11-.4.81-1.28 2.09-2.93 2.09ZM21.1 2.9c-1.02 1.09-1.75 2.52-2.11 4.14-.18.79-.26 1.47-.24 2.09 0 .01-.02.26.02.63v.05c0 .03.01.07.01.1V10.06c.16 1.1.71 2.49 2.4 2.76 1.82.3 2.77-1.05 3.18-1.88.15-.3.23-.63.25-.98v-.19c-.02-.27-.04-.5-.07-.71-.35-2.1-1.3-4.04-2.68-5.46-.24-.24-.49-.48-.77-.69ZM74.64 3.26c.16.16.23.35.23.57v7.38c0 .15-.06.28-.17.39-.11.11-.24.17-.39.17s-.28-.06-.39-.17a.538.538 0 0 1-.17-.39V4.19l-2.87 7.07a.825.825 0 0 1-.78.51c-.18 0-.34-.05-.48-.14s-.25-.22-.32-.38l-2.85-7.07v7.02c0 .15-.06.28-.17.39-.11.11-.25.17-.41.17-.15 0-.28-.06-.39-.17a.538.538 0 0 1-.17-.39V3.83c0-.22.08-.41.23-.57.16-.16.35-.24.58-.24h.41c.16 0 .31.05.45.15.14.1.24.22.31.36l2.81 7 2.81-7a.91.91 0 0 1 .29-.36c.14-.1.29-.15.46-.15h.39c.23 0 .43.08.58.24ZM87.4 10.97c.04.1.06.2.06.31s-.05.21-.14.32c-.1.11-.25.17-.47.17s-.38-.12-.48-.35l-.8-1.92h-4.21l-.79 1.92c-.1.23-.26.35-.48.35s-.37-.06-.47-.17c-.1-.11-.14-.22-.14-.32s.02-.21.06-.31l3.14-7.44c.14-.34.38-.51.72-.51h.12c.33 0 .57.17.72.51l3.14 7.44Zm-2.25-2.49-1.68-4.03-1.68 4.03h3.35ZM98.78 11.21c0 .15-.05.28-.16.39-.11.11-.24.17-.41.17s-.3-.05-.41-.15a.528.528 0 0 1-.16-.41v-.38c0-.66-.07-1.15-.22-1.46-.15-.31-.35-.56-.6-.75-.26-.19-.62-.28-1.09-.28h-2.55v2.87c0 .15-.06.28-.17.39-.11.11-.25.17-.41.17-.15 0-.28-.06-.39-.17a.538.538 0 0 1-.17-.39V3.65c0-.15.06-.28.17-.4.11-.12.24-.17.39-.17h2.88c1.13 0 1.98.24 2.57.72.54.45.81 1.05.8 1.78 0 .47-.13.92-.4 1.34-.27.42-.68.72-1.23.9.59.15 1.03.58 1.3 1.3.18.46.27.98.26 1.54v.56Zm-3.37-3.94c.69 0 1.25-.13 1.68-.4.42-.27.63-.67.63-1.2 0-.49-.17-.87-.5-1.12-.39-.28-1.02-.42-1.87-.42h-2.17v3.14h2.23ZM110.52 10.87c.09.11.14.24.14.38s-.05.27-.15.37-.24.15-.41.15-.32-.07-.44-.21l-3.19-4.08-1.4 1.42v2.31c0 .15-.06.28-.17.39-.11.11-.25.17-.41.17-.15 0-.28-.06-.39-.17a.538.538 0 0 1-.17-.39V3.59c0-.15.06-.28.17-.4.11-.12.24-.17.39-.17s.28.06.4.17c.12.11.17.25.17.41v3.93l4.23-4.29c.1-.13.23-.2.4-.2s.3.04.4.14c.1.1.15.22.15.38s-.05.27-.15.35l-2.85 2.84 3.28 4.14ZM121.2 10.81c.11.11.16.23.16.38 0 .14-.05.26-.16.36a.53.53 0 0 1-.37.15h-4.97c-.15 0-.28-.06-.39-.17a.538.538 0 0 1-.17-.39V3.65c0-.15.06-.28.17-.4.11-.12.24-.17.39-.17h4.97a.5.5 0 0 1 .37.16c.11.11.16.23.16.37s-.05.26-.16.37a.5.5 0 0 1-.37.16h-4.39v2.73h3.94c.14 0 .26.05.37.15.11.1.16.23.16.38 0 .14-.05.26-.15.37-.1.11-.23.16-.38.16h-3.94v2.73h4.39a.5.5 0 0 1 .37.16ZM132.31 3.23a.53.53 0 0 1 0 .74c-.1.11-.23.16-.38.16h-2.52v7.08c0 .15-.05.28-.16.39a.544.544 0 0 1-.79 0 .538.538 0 0 1-.17-.39V4.13h-2.52a.53.53 0 0 1-.37-.15.492.492 0 0 1-.16-.38c0-.14.05-.26.15-.37.1-.11.23-.16.38-.16h6.16c.15 0 .28.05.38.16ZM142.81 10.81c.11.11.16.23.16.38 0 .14-.05.26-.16.36a.53.53 0 0 1-.37.15h-4.97c-.15 0-.28-.06-.39-.17a.538.538 0 0 1-.17-.39V3.65c0-.15.06-.28.17-.4.11-.12.24-.17.39-.17h4.97a.5.5 0 0 1 .37.16c.11.11.16.23.16.37s-.05.26-.16.37a.5.5 0 0 1-.37.16h-4.39v2.73h3.94c.14 0 .26.05.37.15.11.1.16.23.16.38 0 .14-.05.26-.15.37-.1.11-.23.16-.38.16h-3.94v2.73h4.39a.5.5 0 0 1 .37.16ZM154.62 11.21c0 .15-.05.28-.16.39-.11.11-.24.17-.41.17s-.3-.05-.41-.15a.528.528 0 0 1-.16-.41v-.38c0-.66-.07-1.15-.22-1.46-.15-.31-.35-.56-.6-.75-.26-.19-.62-.28-1.09-.28h-2.55v2.87c0 .15-.06.28-.17.39-.11.11-.25.17-.41.17-.15 0-.28-.06-.39-.17a.538.538 0 0 1-.17-.39V3.65c0-.15.06-.28.17-.4.11-.12.24-.17.39-.17h2.88c1.13 0 1.98.24 2.57.72.54.45.81 1.05.8 1.78 0 .47-.13.92-.4 1.34-.27.42-.68.72-1.23.9.59.15 1.03.58 1.3 1.3.18.46.27.98.26 1.54v.56Zm-3.37-3.94c.69 0 1.25-.13 1.68-.4.42-.27.63-.67.63-1.2 0-.49-.17-.87-.5-1.12-.39-.28-1.02-.42-1.87-.42h-2.17v3.14h2.23ZM160.47 4.19c.79-.83 1.83-1.24 3.14-1.24s2.36.41 3.14 1.24c.76.82 1.16 1.88 1.19 3.2-.03 1.31-.43 2.38-1.19 3.2-.79.83-1.83 1.24-3.14 1.24s-2.35-.41-3.14-1.24c-.78-.83-1.19-1.89-1.21-3.2.02-1.31.42-2.38 1.21-3.2Zm3.14 6.59c1.01 0 1.8-.32 2.37-.97.56-.62.85-1.43.85-2.42s-.28-1.79-.85-2.42c-.58-.65-1.37-.98-2.37-.97-1.01 0-1.8.32-2.39.97-.56.62-.84 1.43-.83 2.42 0 .99.28 1.79.83 2.42.58.64 1.38.97 2.39.97ZM175.51 10.78c1.44 0 2.16-.48 2.17-1.43 0-.39-.28-.7-.83-.94-.24-.1-.52-.19-.84-.27-.32-.08-.64-.17-.96-.26-.32-.09-.64-.19-.97-.31-.32-.12-.6-.26-.85-.45-.54-.41-.82-.96-.83-1.63 0-.72.28-1.32.83-1.78.59-.5 1.39-.75 2.39-.75.91 0 1.72.14 2.45.41.23.08.35.25.36.5 0 .12-.04.24-.13.35-.09.11-.18.17-.29.17s-.25-.03-.43-.09a5.55 5.55 0 0 0-1.84-.29c-.63 0-1.16.12-1.57.36-.42.25-.63.6-.63 1.04s.27.82.82 1.07c.25.11.53.2.85.28.31.08.63.15.97.23s.65.18.96.29c.31.12.59.26.84.43.54.39.82.97.83 1.72 0 .7-.29 1.28-.86 1.72-.58.45-1.35.68-2.31.68-1.05 0-2.03-.2-2.94-.59a.644.644 0 0 1-.24-.2c-.07-.1-.11-.2-.11-.32s.05-.23.14-.34c.09-.11.19-.16.31-.16s.26.04.44.12c.18.08.47.17.87.28.4.11.88.16 1.42.16Z"/><g style="opacity:.8"><path class="cls-2" d="M67.6 18.73h.77l1.08 4.76h-.51l-.25-1.1h-1.4l-.25 1.1h-.51l1.08-4.76Zm.38.57-.6 2.65h1.2l-.6-2.65ZM86.07 21.51v-.44h1.33v2.41h-.22l-.19-.47c-.1.18-.24.32-.4.42-.17.1-.35.16-.54.16-.71 0-1.06-.34-1.06-1.02v-2.93c0-.33.1-.58.3-.76.2-.18.5-.27.9-.27s.7.09.91.27c.2.18.31.43.31.76v.4h-.51v-.4c0-.39-.23-.59-.7-.59s-.69.2-.69.59v2.93c0 .19.04.33.12.43s.22.15.43.15.4-.08.58-.25c.18-.17.27-.33.27-.48v-.91h-.82ZM105.55 23.49h-2.16v-4.76h2.09v.44h-1.57v1.68h1.28v.44h-1.28v1.76h1.65v.44ZM121.79 23.49h-.51v-4.76h.51l1.59 3.66v-3.66h.51v4.76h-.51l-1.59-3.66v3.66ZM141.78 22.57v-.4h.51v.4c0 .33-.1.58-.3.76-.2.18-.5.27-.9.27s-.7-.09-.91-.27c-.2-.18-.31-.43-.31-.76v-2.93c0-.33.1-.58.3-.76.2-.18.5-.27.9-.27s.7.09.91.27c.2.18.31.43.31.76v.7h-.51v-.7c0-.39-.23-.59-.7-.59s-.69.2-.69.59v2.93c0 .39.23.59.69.59s.7-.2.7-.59ZM159.23 23.05v.44h-1.24v-.44h.37v-3.88h-.37v-.44h1.24v.44h-.37v3.88h.37ZM175.74 18.73h.77l1.08 4.76h-.51l-.25-1.1h-1.4l-.25 1.1h-.51l1.08-4.76Zm.39.57-.6 2.65h1.2l-.6-2.65Z"/></g></svg>