<svg id="Capa_1" data-name="Capa 1" xmlns="http://www.w3.org/2000/svg" viewBox="0 0 89.12 46.01"><defs><style>.cls-2{fill:#fff;stroke-width:0}</style></defs><path class="cls-2" d="m87.41 26.61-7.2-6.7-3.6 3.9c-2 2.2-5.4 2.3-7.6.3-.2-.2-.4-.5-.6-.7.2.3.5.6.8.9l11 10.2c2.2 2 5.6 1.9 7.6-.3 1.9-2.2 1.7-5.6-.4-7.6Z"/><path class="cls-2" d="M68.81 16.71c2-2.2 5.4-2.3 7.6-.3l3.8 3.5 6.6-7.1c2-2.2 1.9-5.6-.3-7.6-2.2-2-5.6-1.9-7.6.3l-10.3 11.1c-1.8 1.9-1.8 4.8-.3 6.9-1.4-2.1-1.3-4.9.5-6.8Z"/><path class="cls-2" d="m76.51 23.81 3.6-3.9-3.8-3.5c-2.2-2-5.6-1.9-7.6.3-1.7 1.9-1.8 4.7-.4 6.7.2.3.4.5.6.7 2.2 2 5.6 1.9 7.6-.3Z"/><path d="m76.51 23.81 3.6-3.9-3.8-3.5c-2.2-2-5.6-1.9-7.6.3-1.7 1.9-1.8 4.7-.4 6.7.2.3.4.5.6.7 2.2 2 5.6 1.9 7.6-.3Z" style="fill:#fff;stroke-width:0;isolation:isolate;opacity:.75"/><path class="cls-2" d="M43.11 15.51c-.6-3.6-2.2-7.1-4.8-9.8-2.7-2.7-6.3-4.2-10.1-4.5-4.3-.4-9 .3-12.5 2.8-3.1 2.2-5 5.5-5.8 9.1-.3 1.2-.5 2.5-.4 3.7 0 0-.4 5.9 4.5 6.7 3.3.5 5.1-1.9 5.9-3.5.3-.7.5-1.4.5-2.1 0-.4 0-.8.1-1.3.4-1.9 1.5-3.8 3.4-4.7 1.9-.9 4.4-.8 6.1.5 1.4 1 2.3 2.9 2.5 4.6.1.7.1 1.4.1 2 .1 1.4.1 2.8.2 4.2.1 1.5.1 2.9.2 4.4.1 2.5.2 3.4.3 5.9v.1c.1.9.4 1.8.9 2.5v.1l.1.1.2.2.2.2.1.1c.1.1.2.1.2.2.2.1.3.3.5.4 0 0 .1 0 .1.1.1 0 .1.1.2.1s.1.1.2.1.1.1.2.1c.1.1.2.1.4.2s.3.1.5.1c.8.2 1.7.2 2.6 0 .1 0 .3-.1.4-.1 2.1-.7 3.6-2.8 3.5-5.2-.1-2.5-.1-4.2-.2-6.7-.1-1.6-.1-3.3-.2-4.9l-.1-4.5c.1-.3.1-.8 0-1.2Z"/><path class="cls-2" d="M20.21 16.31c-.6-3.6-2.2-7.1-4.8-9.8-1.1-1.1-2.3-2-3.6-2.7-3.8-2.3-6.5-2.1-6.5-2.1h-.4c-2.9.1-5.1 2.6-4.9 5.5.1 1.7.9 3.1 2.2 4 1.1.8 2.5 1 3.3 1.2.1 0 .5.1 1 .3 1.2.5 2.9 1.9 3 5v.1c.1.7.1 1.4.1 2 .1 1.4.1 2.8.2 4.2.1 1.5.1 2.9.2 4.4.1 2.5.5 9.7.6 12.3.1 2.9 2.6 5.1 5.5 4.9 2.9-.1 5.1-2.6 4.9-5.4 0-.4 0-.9-.1-1.3-.1-2.5-.4-9.5-.5-12-.1-1.6-.1-3.3-.2-4.9l-.1-4.5c.2-.3.1-.7.1-1.2ZM76.51 40.61c-.1-1.7-.9-3.1-2.2-4-1.1-.8-2.5-1-3.3-1.2-.1 0-.5-.1-1-.3-1.2-.5-2.9-1.9-3-5v-.1c-.1-.7-.1-1.4-.1-2-.1-1.4-.1-2.8-.2-4.2-.1-1.5-.1-2.9-.2-4.4-.1-2.2-.2-3.4-.3-5.3v-1.1c0-.4-.1-.8-.2-1.2-.6-3.1-3.1-7.7-9.5-10.5l-.7-.3c-1.5-.6-2.9-.8-4.5-.9-4.3-.4-9 .3-12.5 2.8-3.1 2.2-5 5.5-5.8 9.1-.3 1.2-.5 2.5-.4 3.7 0 0-.4 5.9 4.5 6.7 3.3.5 5.1-1.9 5.9-3.5.3-.7.5-1.4.5-2.1 0-.4 0-.8.1-1.3.4-1.9 1.5-3.8 3.4-4.7s4.4-.8 6.1.5c1.4 1 2.3 2.9 2.5 4.6.1.7.1 1.4.1 2 .1 1.4.1 2.8.2 4.2.1 1.5.1 2.9.2 4.4.1 2.3.1 1.6.2 3.2 0 2.5.9 16.7 15.2 16.3h.4c2.6-.2 4.7-2.6 4.6-5.4Z"/><path class="cls-2" d="M36.91 22.41c3.3.5 5.1-1.9 5.9-3.5.3-.6.4-1.2.5-1.8v-.4c0-.4 0-.9-.1-1.3-.6-3.6-2.2-7.1-4.8-9.8-.5-.5-1-1-1.6-1.4-2 2.1-3.3 4.7-3.9 7.6-.3 1.2-.5 2.5-.4 3.7v1.7c.2 2 1.1 4.7 4.4 5.2Z"/></svg>